<svg xmlns="http://www.w3.org/2000/svg" viewBox="0 0 32 32" id="option"><path d="M24.299 3.126a1.5 1.5 0 0 0-1.3-.75H9a1.5 1.5 0 0 0-1.298.75l-7 12.124a1.5 1.5 0 0 0 0 1.5l7 12.124a1.5 1.5 0 0 0 1.299.75h14a1.5 1.5 0 0 0 1.299-.75l7-12.124a1.497 1.497 0 0 0 0-1.5l-7-12.124zm-2.165 23.498H9.866L3.732 16 9.866 5.376h12.268L28.267 16l-6.133 10.624z" fill="#000000"></path><path d="M16 7.634c-4.613 0-8.366 3.753-8.366 8.366s3.753 8.366 8.366 8.366 8.366-3.753 8.366-8.366S20.613 7.634 16 7.634zm0 13.732c-2.96 0-5.366-2.407-5.366-5.366S13.04 10.634 16 10.634 21.366 13.04 21.366 16 18.959 21.366 16 21.366z" fill="#000000"></path></svg>